<svg width="429" height="98" fill="none" xmlns="http://www.w3.org/2000/svg"><path fill-rule="evenodd" clip-rule="evenodd" d="M233.413 80.995c2.627 1.121-1.556-16.413-1.261-19.231.77-7.322 10.223-4.32 14.461-10.382 7.144-10.216 15.317-15.503 27-13.587 10.107 1.654 13.27.046 20.905 6.544 2.323 1.976 4.222 4.459 5.911 7.043.157.142.316.283.473.426 1.621.194 1.49-1.026 1.598-2.006.828-7.35 1.872-14.66 4.104-21.74.816-2.59 1.717-5.184 3.806-7.12l1.829-2.221c.517-1.123 1.3-1.987 2.437-2.51a.31.31 0 0 1 .227-.205c3.545-4.06 4.652-6.57 18.281-7.83 13.629-1.26 26.073 20.78 27.75 18.828 2.366-2.752 16.984-8.763 27.615-8.078 7.108.46 13.334 3.013 18.589 7.878 3.387 3.137 6.248 6.755 9.119 10.317 3.921 4.867 6.905 10.388 9.688 15.99.524 1.053.93 2.139.82 3.347.202 1.7-.158 15.63 0 17.337 1.771 19.046-195.309 6.363-193.352 7.2Z" fill="#3F7729"/><path fill-rule="evenodd" clip-rule="evenodd" d="M255.034 30.495c-6.271-6.645-14.273-8.244-23.196-6.16-7.717 1.8-17.722 6.354-23.176 11.365-1.659 1.524 1.02-3.792-1.216-8.573-.82-1.75-6.236-13.932-18.821-13.932-12.586 0-12.724 2.01-15.276 5.437a.23.23 0 0 0-.142.175c-1.536 1.219-2.028 2.989-2.973 4.517-.959 1.552-1.215 1.596-2.655.346-2.031-1.763-3.822-3.738-6.228-5.16-7.226-4.267-15.146-4.577-23.34-3.417-5.478.777-10.123 2.954-13.848 6.675-2.401 2.4-4.361 5.1-6.331 7.764-2.692 3.636-4.609 7.668-6.365 11.744-.331.766-.569 1.547-.396 2.381-.036 1.195-5.008 10.904-28.858 29.504-.005 8.36 51.207 13.655 101.4 9.034 29.4 0 74.727-2.282 73.8 0 .06-4.347 1.342-47.755-2.379-51.7Z" fill="#326E47"/><path fill-rule="evenodd" clip-rule="evenodd" d="M417.083 52.178c1.084-.118 2.165.19 2.81 1.12 2.124 3.065 1.545 4.553-.244 5.154-1.664.56-3.539-.111-4.562-1.524a.653.653 0 0 0-.029-.04c-1.335-1.85-.259-4.462 2.025-4.71Zm-37.267-24.674c.054-1.176.621-1.911 1.702-2.211 1.913-.53 3.797 1.184 3.506 3.126-.158 1.056-.705 1.731-1.638 2.028-1.842.583-3.657-1.032-3.57-2.943Zm14.566 19.555c2.186 3.478 7.632-.131 4.416-3.087-2.608-2.605-6.027.53-4.416 3.087Zm12.393-3.806c-3.716 3.084 2.931 9.564 5.408 2.56 1.342-3.32-3.315-4.82-5.408-2.56Zm-17.09-11.398c.204-2.436 2.556-4.576 4.783-3.448 1.223.618 1.757 2.088 1.423 3.405-.444 1.756-1.723 2.384-2.88 2.704-1.767.49-3.48-.852-3.326-2.66Z" fill="#AE916A"/><path fill-rule="evenodd" clip-rule="evenodd" d="M.013 79.195C2.526 80.554 2.375 56.74 2.928 53.96c1.441-7.22 4.612-13.52 9.39-19.167 8.055-9.514 18.331-11.803 29.789-8.82 9.912 2.578 17.522 9.204 24.527 16.377 2.131 2.181 3.793 4.828 5.237 7.557.144.156.289.311.432.468 1.596.342 1.578-.884 1.776-1.85 1.5-7.242 3.213-14.426 6.087-21.27 1.051-2.505 2.188-5.004 4.446-6.74l2.026-2.043c.618-1.07 1.477-1.859 2.658-2.275a.31.31 0 0 1 .245-.182c3.903-3.717 5.236-6.114 18.924-6.114 13.687 0 24.049 23.091 25.898 21.302 2.61-2.523 17.719-7.162 28.242-5.5 7.036 1.11 13 4.227 17.784 9.555 3.084 3.435 5.6 7.3 8.131 11.112 3.456 5.208 5.92 10.98 8.175 16.814.424 1.097.729 2.215.508 3.408.045 1.713.128 3.424.128 5.137.009 19.128-199.19 6.452-197.318 7.466Z" fill="#3F7729"/><path fill-rule="evenodd" clip-rule="evenodd" d="M34.63 36.638c-.068-1.503-.797-2.444-2.184-2.828-2.457-.678-4.878 1.515-4.503 3.998.202 1.349.904 2.212 2.102 2.592 2.366.745 4.698-1.32 4.585-3.762Zm-18.705 25c-2.808 4.447-9.8-.167-5.673-3.947 3.35-3.332 7.74.676 5.673 3.947Zm6.03-19.438c-.262-3.114-3.28-5.85-6.142-4.41-1.57.793-2.256 2.67-1.828 4.356.572 2.244 2.213 3.047 3.699 3.456 2.27.627 4.47-1.09 4.272-3.402Z" fill="#AE916A"/><path fill-rule="evenodd" clip-rule="evenodd" d="M152.908 33.038c9.732 0 10.458 8.412 11.658 15.813 1.2 7.4-1.2 10.028-19.2 10.028-7.2 0-9.626-2.627-9.626-6.065-2.16 6.065-3.574 8.784-7.174 8.784-3.6 0 0-5.436 1.2-8.16-1.2 2.724-5.027 7.396-6.434 6.8-3.21-1.36-1.2-4.148.434-6.8-9.6 9.954-40.77 4.932-48 2.724 0 0-1.864-5.265 0-10.97 2.592-7.936 4.828-5.121 13.2-9.016 0-7.218 11.733-15.378 19.224-15.378 15.353 0 28.375 7.632 32.925 18.204 3.051-2.826 6.186-5.964 11.793-5.964Z" fill="#3F7729"/><path fill-rule="evenodd" clip-rule="evenodd" d="M99.286 21.817c.706 2.865-1.96 5.303-4.769 4.503l-.06-.017c-2.147-.618-3.776-2.587-3.836-4.84-.063-2.422 1.47-3.77 6.086-2.548 1.4.372 2.244 1.543 2.579 2.902Zm61.049 32.42c-2.256.94-4.995-.544-5.103-3.022-.054-1.255.518-2.211 1.716-2.863 2.206-1.2 5.093.324 5.296 2.865.114 1.435-.522 2.441-1.909 3.02Zm-32.967-10.462c-5.138-1.118-3.194-9.267 1.77-6.68 4.276 2.009 2.012 7.506-1.77 6.68Zm-7.467-18.624c-2.073 5.835-12.777.647-5.452-5.403 3.4-3.072 7.248 1.89 5.452 5.403Zm30.824 21.922c-2.106.975-4.471-.504-4.658-2.852-.124-1.536.068-3.352 1.983-4.658 1.436-.979 3.436-.977 4.716.228 2.334 2.196.796 5.97-2.041 7.282Z" fill="#AE916A"/></svg>