<svg width="1024" height="576" fill="none" xmlns="http://www.w3.org/2000/svg"><g clip-path="url(#a)"><path d="M1023.68 576H0V.3C.831-.219 1.767.091 2.702.091H1020.88c3.43 0 3.12-.413 3.12 2.999v570.22c-.11.827.2 1.761-.32 2.689Z" fill="url(#b)"/><path d="M1023.68 576H0V.3C.831-.219 1.767.091 2.702.091H1020.88c3.43 0 3.12-.413 3.12 2.999v570.22c-.11.827.2 1.761-.32 2.689Z" fill="url(#c)"/><g opacity=".3"><path opacity=".4" d="M725.123 372.453c.246 5.405.126 10.914.126 16.319 0 2.703.73 4.366-1.717 5.51-1.831.831-6.115.207-8.436.207-12.728.104-25.574-.207-38.294-.312-23.609-.207-47.22.209-70.83.209 1.346-9.875 6.116-17.775 17.004-22.036 5.627-2.183 12.356-3.847 18.594-2.495 4.405.935 7.463 4.366 11.623 2.495 4.037-1.768 6.728-7.069 11.134-9.252 5.624-2.91 12.229-3.846 18.716-2.91 12.601 1.975 19.697 8.835 25.447 17.878 4.278-3.845 10.518-5.716 16.633-5.613Z" fill="#2E9633"/><path opacity=".4" d="M510.281 285.21c1.71-2.293 2.931-3.544 3.908-4.795 5.128-6.462 11.232-11.882 18.558-16.469 3.907-2.292 8.059-4.377 12.943-2.084 4.64 2.293 5.861 6.462 5.617 10.84-.245 3.961-1.71 7.505-3.908 10.84-2.686 3.961-5.861 7.713-8.791 11.674-.977 1.459-2.442 2.084-4.396 1.876-26.373-.417-52.502 1.876-78.875 1.668-5.373 0-5.861-.417-6.105-5.003-.244-4.17.976-7.921 3.174-11.466 2.931-5.003 8.303-7.504 16.362-4.794 2.93 1.042 5.616 2.71 8.547 4.169 1.709-.625.977-2.084 1.221-3.127 1.221-6.462 3.907-12.508 8.302-17.928a36.15 36.15 0 0 1 4.151-4.169c5.129-3.96 9.768-3.544 13.676 1.459 3.907 5.212 5.616 11.258 5.861 17.511 0 3.127-.245 5.837-.245 9.798Z" fill="#073B39"/><path opacity=".4" d="M567.428 51.358c.495-2.9.991-4.972 1.239-7.044.495-2.486 1.486-4.765 3.22-6.836 2.229-2.28 4.21-2.28 6.936-.208 1.733 1.45 2.476 3.315 3.467 5.18 2.477 6.007 3.468 12.222 4.211 18.644 1.734-.414 2.229-1.864 2.972-2.693 3.221-4.143 6.441-8.286 11.147-11.394 4.211-2.693 6.936-2.071 7.926 2.279 1.487 6.215-1.486 11.601-6.192 16.366-.743.829-1.982.829-3.221 1.036-11.641 1.035-23.283.414-34.925-.207-1.239 0-2.477-.208-3.22-.829-5.697-4.35-9.908-9.53-10.404-16.159-.247-4.35 2.477-5.8 7.432-4.972 4.458.829 6.687 3.73 9.412 6.837ZM249.067 28.765c.123-1.763.246-3.111.617-4.355.246-.83.616-1.556 1.11-2.282 1.233-1.66 2.466-1.66 3.946-.311.74.726 1.109 1.555 1.48 2.385 1.11 3.007 1.849 6.119 1.973 9.23 1.11.207 1.11-.622 1.357-1.037 1.602-2.178 3.329-4.356 5.795-5.911 2.22-1.452 3.577-1.141 3.947 1.244.493 2.904-.74 5.496-2.836 7.882-.494.622-1.357.622-2.097.726-5.796.414-11.592.31-17.389-.208-.739-.103-1.233-.31-1.849-.726-2.343-1.867-3.946-4.148-4.687-6.74-.37-1.141-.37-2.386.864-3.215 1.356-.934 2.836-.312 4.193.207 1.479.622 2.096 1.763 3.576 3.111ZM388.54 268.352c.292-1.602.437-3.08.729-4.435.729-2.711 2.479-4.929 4.083-4.559 2.333.493 3.209 2.341 3.792 4.189 1.312 3.573 1.895 7.269 2.479 11.211 1.749-2.095-7.729 4.558-6.271 2.834 1.167-1.356-.291.492-7.145 0-.583 0-1.166-.124-1.604-.493-3.208-2.71-5.832-5.667-5.978-9.609-.146-2.588 1.603-3.573 4.52-2.834 1.604.246 2.333.739 5.395 3.696Z" fill="#083B39"/><path opacity=".4" d="M514.563 110.323c-.487-2.69-.731-5.172-1.217-7.447-1.217-4.55-4.137-8.273-6.814-7.653-3.894.828-5.354 3.93-6.327 7.033-2.19 5.998-3.164 12.203-4.137 18.822-2.92-3.517-5.354-6.619-7.787-9.515-1.947-2.275-4.137-4.343-7.057-5.791-3.164-1.861-4.381-1.241-6.327 1.655-2.434 3.929.973 14.065 5.596 17.788.974.827 2.19.827 3.164.827 11.68 1.034 23.362.621 34.799-.207.973 0 1.947-.207 2.677-.827 5.354-4.551 9.733-9.515 9.977-16.133.243-4.344-2.677-5.999-7.544-4.758-2.676.414-3.893 1.241-9.003 6.206ZM37.087 246.478c-.487-2.688-.73-5.171-1.217-7.445-1.217-4.551-4.137-8.274-6.814-7.654-3.893.828-5.354 3.93-6.327 7.033-2.19 5.998-3.163 12.203-4.137 18.822-2.92-3.516-5.354-6.619-7.787-9.515-1.947-2.274-4.137-4.343-7.057-5.791-3.164-1.861-4.38-1.241-6.327 1.655-2.434 3.93.973 14.064 5.597 17.788.973.827 2.19.827 3.163.827 11.681 1.035 23.362.621 34.8-.207.973 0 1.946-.206 2.676-.827 5.354-4.55 9.734-9.514 9.977-16.133.244-4.344-2.676-5.998-7.543-4.757-2.677.413-3.894 1.24-9.004 6.204ZM458.28 364.758c1.485-1.56 2.598-3.223 4.082-4.679.866-.936 1.732-1.768 2.845-2.496 2.226-1.455 3.587-1.039 3.958 1.352.495 2.912-.742 5.512-2.845 7.903-.618.624-1.36.624-2.102.728-5.814.416-11.627.312-17.441-.208-.742-.104-1.237-.312-1.855-.728-2.35-1.872-3.958-4.16-4.7-6.759-.248-1.143-.248-2.392.989-3.224 1.237-.831 2.597-.311 3.958.209 1.485.519 2.227 1.768 3.711 3.327 0-2.08.247-3.431.742-4.887.495-1.456 1.113-3.223 3.092-3.223s2.721 1.663 3.216 3.119c1.237 3.119 1.979 6.239 2.35 9.566ZM129.833 186.022c1.484-1.559 2.598-3.223 4.082-4.679.866-.936 1.732-1.768 2.845-2.496 2.226-1.455 3.587-1.039 3.958 1.352.495 2.912-.742 5.511-2.845 7.903-.619.624-1.361.624-2.103.728-5.813.416-11.627.312-17.44-.208-.742-.104-1.237-.312-1.855-.728-2.35-1.872-3.958-4.159-4.7-6.759-.248-1.143-.248-2.392.989-3.223 1.237-.832 2.598-.312 3.958.208 1.484.52 2.226 1.767 3.711 3.327 0-2.079.247-3.432.742-4.887.495-1.456 1.113-3.223 3.092-3.223s2.722 1.663 3.216 3.119c1.237 3.119 1.979 6.239 2.35 9.566Z" fill="#21B6A0"/><path opacity=".4" d="M669.785 191.739c0-1.365.245-2.731.617-3.991.245-.945.617-1.784 1.359-2.52 1.241-1.26 2.355-1.365 3.721-.105.862.735 1.233 1.68 1.605 2.625 1.121 3.046 1.864 6.091 1.864 9.346 1.233-.104 1.233-.945 1.605-1.469 1.737-2.206 3.349-4.411 5.823-5.986 1.983-1.155 3.097-.84 3.594 1.05.743 3.15-.497 5.881-2.726 8.401-.497.525-1.114.63-1.857.63-5.949.42-11.891.315-17.84-.21-.617 0-1.114-.21-1.605-.525-2.481-1.995-4.213-4.411-4.832-7.351-.248-1.155-.124-2.31.991-2.941 1.115-.734 2.475-.315 3.715.106.988.42 1.731 1.05 2.48 1.785.372.525.617 1.155 1.486 1.155ZM53.925 121.972c.247-3.509.494-6.192 1.236-8.669.495-1.651 1.236-3.096 2.225-4.541 2.473-3.508 5.193-3.508 8.408-.619 1.484 1.445 1.978 3.096 2.72 4.954 2.225 5.985 3.461 11.97 3.956 18.782 2.226-1.239 2.72-2.89 3.71-4.129 3.213-3.921 6.18-7.636 10.631-10.526 4.204-2.683 6.43-2.063 7.419 2.065 1.483 6.191-1.237 11.557-5.688 16.511-.989 1.032-2.472 1.032-3.709 1.238-11.868.826-23.737.62-35.606-.412-.99 0-1.978-.207-2.72-.826-5.44-4.128-9.15-9.081-10.138-15.273-.742-4.954 2.967-7.017 8.407-5.366 4.203 1.032 6.181 3.715 9.149 6.811Z" fill="#083B39"/><path opacity=".4" d="M339.761 93.025c2.951-3.068 5.165-6.34 8.116-9.202 1.722-1.84 3.443-3.477 5.656-4.908 4.427-2.658 6.887-2.25 7.871 2.25 1.229 5.93-1.23 11.246-5.657 15.949-.983 1.023-2.214 1.227-3.689 1.227-11.805.818-23.61.613-35.415-.204-1.722-.205-2.706-.818-3.936-1.84-4.672-3.681-7.378-8.384-9.099-13.496-.738-2.25.245-3.886 1.721-5.317 1.722-1.636 4.182-1.227 6.641-.614 3.935.819 5.902 3.681 9.1 7.157.245-3.68.491-6.338 1.229-8.793.984-3.067 1.967-6.747 6.394-6.747 4.181 0 5.657 3.68 6.641 6.543 2.213 5.521 3.689 11.656 4.427 17.995Z" fill="#083C39"/><path opacity=".4" d="M324.361 343.36c1.949-.629 2.436-2.095 3.411-3.141 1.462-1.467 2.924-2.514 5.117-3.352 5.36-1.675 8.527 0 8.284 4.817-.487 6.493-4.63 11.519-9.99 15.917-.731.628-1.706.628-2.68.838-11.452.838-22.903 1.466-34.355.209-2.68-.209-4.386-1.256-5.604-2.932-3.168-4.398-5.117-9.006-4.142-14.241.974-4.608 3.168-5.236 7.553-2.513 4.386 2.932 7.553 6.702 10.477 10.681.974 1.256 1.949 2.722 3.411 4.816 1.218-6.701 1.706-12.565 3.898-18.22.975-2.304 1.463-4.817 3.655-6.702 2.68-2.303 4.874-2.303 7.066.419 1.949 2.304 2.68 4.817 3.168 7.54 0 1.884.487 3.769.731 5.864Z" fill="#1D6002"/><path opacity=".4" d="M84.77 39.109c.487-3.078.73-5.95 1.46-8.617.732-2.873 1.706-6.36 5.847-6.566 3.654 0 5.115 3.078 6.333 5.745 2.679 6.155 4.141 12.515 5.115 19.286 1.706-.616 1.949-1.847 2.68-2.873 2.923-4.308 5.846-8.411 10.475-11.694 4.384-3.283 7.307-2.462 8.038 2.462.974 5.54-1.218 10.669-5.116 15.182-.974 1.026-2.192 1.231-3.653 1.231-11.449 1.437-22.898 1.026-34.347.821-1.217 0-2.192 0-3.166-.82-5.603-4.104-9.744-8.823-10.475-15.388-.487-4.514 2.68-6.36 7.795-4.924 2.436.615 4.141 1.846 5.603 3.282 1.218 1.026 1.462 2.463 3.41 2.873ZM124.51 313.897c.487-3.078.731-5.95 1.462-8.617.73-2.873 1.705-6.36 5.845-6.566 3.655 0 5.116 3.078 6.334 5.745 2.68 6.155 4.141 12.515 5.115 19.286 1.706-.616 1.949-1.847 2.68-2.873 2.923-4.308 5.846-8.411 10.475-11.694 4.384-3.283 7.307-2.462 8.038 2.462.974 5.54-1.218 10.669-5.116 15.183-.974 1.025-2.191 1.23-3.653 1.23-11.449 1.436-22.898 1.026-34.347.821-1.217 0-2.192 0-3.166-.821-5.603-4.103-9.744-8.822-10.475-15.387-.487-4.514 2.68-6.361 7.795-4.924 2.436.615 4.141 1.846 5.603 3.282 1.218 1.026 1.462 2.462 3.41 2.873Z" fill="#1C6001"/><path opacity=".4" d="M243.672 251.953c1.963-3.488 3.191-6.157 4.663-8.619a22.913 22.913 0 0 1 5.892-6.568c3.436-2.463 6.872-1.847 9.081 1.436 1.473 2.052 1.718 4.31.982 6.774-2.209 8.414-8.1 15.188-15.218 21.139-1.228.821-2.209 1.026-3.682.411a110.837 110.837 0 0 0-11.045-3.079c-2.455-.615-3.682-2.052-4.173-3.694-4.418-10.057-5.645-20.319-.982-30.581.736-1.848 1.718-4.105 4.664-3.9 2.7.205 3.682 2.258 4.418 4.105 2.454 4.72 3.682 9.646 4.418 14.777.245 2.053.491 4.311.982 7.799Z" fill="#1C6002"/><path opacity=".4" d="M707.349.115c-1.061.507-2.122.406-3.316.406.929-.71 2.122-.608 3.316-.406Z" fill="#B7D8B4"/><path opacity=".4" d="M659.999 297.833c0 3.215-54.486 1.763-60.254 1.763-12.149-.104-25.034 1.037-37.06.104-5.4-.415-4.541-2.282-2.946-6.638 1.595-4.148 5.154-7.363 9.695-9.437 5.031-2.281 10.063-2.8 15.34-1.244 5.154 1.451 3.436 1.97 7.485-1.867 6.504-6.222 16.813-7.675 25.28-3.007 3.313 1.762 5.768 7.363 8.468 8.503 2.208.934 7.608-2.489 11.167-2.489 10.063-.103 20.126 6.327 22.825 14.312Z" fill="#2E9533"/><path opacity=".4" d="M967.329 28.765c.119-1.763.245-3.111.616-4.355.246-.83.617-1.556 1.108-2.282 1.233-1.66 2.467-1.66 3.946-.311.743.726 1.107 1.555 1.479 2.385 1.107 3.007 1.85 6.119 1.976 9.23 1.108.207 1.108-.622 1.353-1.037 1.605-2.178 3.33-4.356 5.797-5.911 2.221-1.452 3.574-1.141 3.946 1.244.497 2.904-.736 5.496-2.839 7.882-.491.622-1.353.622-2.096.726-5.796.414-11.592.31-17.382-.208-.743-.103-1.234-.31-1.851-.726-2.347-1.867-3.946-4.148-4.689-6.74-.371-1.141-.371-2.386.863-3.215 1.359-.934 2.838-.312 4.191.207 1.486.622 2.103 1.763 3.582 3.111Z" fill="#083B39"/><path opacity=".4" d="M755.346 246.478c-.484-2.688-.73-5.171-1.214-7.445-1.22-4.551-4.138-8.274-6.818-7.654-3.893.828-5.352 3.93-6.327 7.033-2.188 5.998-3.163 12.203-4.138 18.822-2.918-3.516-5.352-6.619-7.786-9.515-1.943-2.274-4.139-4.343-7.057-5.791-3.163-1.861-4.377-1.241-6.327 1.655-2.434 3.93.975 14.064 5.598 17.788.975.827 2.188.827 3.163.827 11.679 1.035 23.365.621 34.799-.207.975 0 1.95-.206 2.679-.827 5.352-4.55 9.73-9.514 9.975-16.133.245-4.344-2.679-5.998-7.541-4.757-2.679.413-3.893 1.24-9.006 6.204ZM848.089 186.022c1.486-1.559 2.6-3.223 4.086-4.679.862-.936 1.731-1.768 2.845-2.496 2.228-1.455 3.588-1.039 3.959 1.352.491 2.912-.742 5.511-2.845 7.903-.623.624-1.359.624-2.102.728-5.817.416-11.626.312-17.443-.208-.742-.104-1.24-.312-1.857-.728-2.347-1.872-3.959-4.159-4.702-6.759-.245-1.143-.245-2.392.995-3.223 1.234-.832 2.593-.312 3.959.208 1.479.52 2.222 1.767 3.708 3.327 0-2.079.245-3.432.743-4.887.497-1.456 1.114-3.223 3.09-3.223 1.983 0 2.719 1.663 3.217 3.119 1.24 3.119 1.976 6.239 2.347 9.566Z" fill="#21B6A0"/><path opacity=".4" d="M772.185 121.972c.245-3.509.491-6.192 1.234-8.669.497-1.651 1.24-3.096 2.228-4.541 2.474-3.508 5.193-3.508 8.403-.619 1.485 1.445 1.983 3.096 2.726 4.954 2.221 5.985 3.462 11.97 3.952 18.782 2.229-1.239 2.72-2.89 3.708-4.129 3.216-3.921 6.181-7.636 10.638-10.526 4.198-2.683 6.426-2.063 7.414 2.065 1.486 6.191-1.233 11.557-5.683 16.511-.995 1.032-2.474 1.032-3.714 1.238-11.865.826-23.737.62-35.608-.412-.988 0-1.977-.207-2.719-.826-5.439-4.128-9.146-9.081-10.134-15.273-.743-4.954 2.964-7.017 8.403-5.366 4.204 1.032 6.181 3.715 9.152 6.811Z" fill="#083B39"/><path opacity=".4" d="M1058.02 93.025c2.95-3.068 5.16-6.34 8.11-9.202 1.73-1.84 3.45-3.477 5.66-4.908 4.43-2.658 6.89-2.25 7.87 2.25 1.23 5.93-1.23 11.246-5.65 15.949-.99 1.023-2.22 1.227-3.69 1.227-11.81.818-23.61.613-35.42-.204-1.72-.205-2.7-.818-3.94-1.84-4.67-3.681-7.37-8.384-9.1-13.496-.73-2.25.25-3.886 1.73-5.317 1.72-1.636 4.18-1.227 6.64-.614 3.94.819 5.9 3.681 9.1 7.157.24-3.68.49-6.338 1.23-8.793.98-3.067 1.96-6.747 6.39-6.747 4.18 0 5.66 3.68 6.64 6.543 2.22 5.521 3.69 11.656 4.43 17.995Z" fill="#083C39"/><path opacity=".4" d="M1042.62 343.36c1.95-.629 2.44-2.095 3.41-3.141 1.46-1.467 2.93-2.514 5.12-3.352 5.36-1.675 8.52 0 8.28 4.817-.49 6.493-4.63 11.519-9.99 15.917-.73.628-1.7.628-2.68.838-11.45.838-22.9 1.466-34.35.209-2.68-.209-4.39-1.256-5.61-2.932-3.17-4.398-5.11-9.006-4.14-14.241.97-4.608 3.17-5.236 7.55-2.513 4.39 2.932 7.56 6.702 10.48 10.681.98 1.256 1.95 2.722 3.41 4.816 1.22-6.701 1.71-12.565 3.9-18.22.97-2.304 1.46-4.817 3.65-6.702 2.68-2.303 4.88-2.303 7.07.419 1.95 2.304 2.68 4.817 3.17 7.54 0 1.884.49 3.769.73 5.864Z" fill="#1D6002"/><path opacity=".4" d="M803.031 39.109c.484-3.078.729-5.95 1.459-8.617.729-2.873 1.704-6.36 5.843-6.566 3.654 0 5.12 3.078 6.333 5.745 2.68 6.155 4.146 12.515 5.12 19.286 1.705-.616 1.95-1.847 2.68-2.873 2.918-4.308 5.843-8.411 10.472-11.694 4.384-3.283 7.309-2.462 8.038 2.462.975 5.54-1.22 10.669-5.113 15.182-.975 1.026-2.196 1.231-3.655 1.231-11.447 1.437-22.9 1.026-34.347.821-1.221 0-2.189 0-3.164-.82-5.604-4.104-9.749-8.823-10.479-15.388-.484-4.514 2.68-6.36 7.8-4.924 2.434.615 4.138 1.846 5.597 3.282 1.221 1.026 1.466 2.463 3.416 2.873ZM842.771 313.897c.484-3.078.729-5.95 1.459-8.617.729-2.873 1.704-6.36 5.849-6.566 3.654 0 5.114 3.078 6.334 5.745 2.679 6.155 4.138 12.515 5.113 19.286 1.705-.616 1.95-1.847 2.68-2.873 2.924-4.308 5.842-8.411 10.472-11.694 4.383-3.283 7.308-2.462 8.038 2.462.975 5.54-1.214 10.669-5.114 15.183-.974 1.025-2.195 1.23-3.654 1.23-11.447 1.436-22.894 1.026-34.348.821-1.213 0-2.188 0-3.163-.821-5.604-4.103-9.743-8.822-10.479-15.387-.484-4.514 2.68-6.361 7.8-4.924 2.433.615 4.138 1.846 5.604 3.282 1.213 1.026 1.459 2.462 3.409 2.873Z" fill="#1C6001"/><path opacity=".4" d="M961.93 251.953c1.963-3.488 3.19-6.157 4.662-8.619a22.855 22.855 0 0 1 5.896-6.568c3.436-2.463 6.871-1.847 9.08 1.436 1.472 2.052 1.717 4.31.981 6.774-2.208 8.414-8.098 15.188-15.22 21.139-1.227.821-2.209 1.026-3.681.411a110.726 110.726 0 0 0-11.043-3.079c-2.454-.615-3.681-2.052-4.171-3.694-4.424-10.057-5.651-20.319-.982-30.581.736-1.848 1.718-4.105 4.662-3.9 2.7.205 3.681 2.258 4.417 4.105 2.454 4.72 3.681 9.646 4.417 14.777.246 2.053.491 4.311.982 7.799Z" fill="#1C6002"/><path opacity=".4" d="M967.329 421.39c.119-1.763.245-3.111.616-4.355.246-.83.617-1.556 1.108-2.282 1.233-1.659 2.467-1.659 3.946-.311.743.726 1.107 1.555 1.479 2.385 1.107 3.008 1.85 6.119 1.976 9.23 1.108.207 1.108-.622 1.353-1.037 1.605-2.178 3.33-4.356 5.797-5.911 2.221-1.452 3.574-1.141 3.946 1.244.497 2.904-.736 5.497-2.839 7.882-.491.622-1.353.622-2.096.726-5.796.414-11.592.311-17.382-.208-.743-.103-1.234-.311-1.851-.726-2.347-1.866-3.946-4.148-4.689-6.74-.371-1.141-.371-2.386.863-3.216 1.359-.933 2.838-.311 4.191.208 1.486.622 2.103 1.763 3.582 3.111Z" fill="#083B39"/><path opacity=".4" d="M848.089 578.649c1.486-1.563 2.6-3.223 4.086-4.68.862-.939 1.731-1.766 2.845-2.497 2.228-1.457 3.588-1.041 3.959 1.35.491 2.914-.742 5.512-2.845 7.903-.623.624-1.359.624-2.102.731-5.817.416-11.626.31-17.443-.208-.742-.107-1.24-.315-1.857-.731-2.347-1.868-3.959-4.157-4.702-6.756-.245-1.147-.245-2.39.995-3.223 1.234-.832 2.593-.315 3.959.208 1.479.518 2.222 1.766 3.708 3.325 0-2.076.245-3.432.743-4.889.497-1.451 1.114-3.223 3.09-3.223 1.983 0 2.719 1.665 3.217 3.122 1.24 3.122 1.976 6.238 2.347 9.568Z" fill="#21B6A0"/><path opacity=".4" d="M772.185 514.597c.245-3.509.491-6.192 1.234-8.669.497-1.651 1.24-3.096 2.228-4.54 2.474-3.509 5.193-3.509 8.403-.62 1.485 1.445 1.983 3.096 2.726 4.954 2.221 5.985 3.462 11.971 3.952 18.782 2.229-1.238 2.72-2.89 3.708-4.128 3.216-3.922 6.181-7.637 10.638-10.526 4.198-2.683 6.426-2.064 7.414 2.064 1.486 6.191-1.233 11.557-5.683 16.511-.995 1.032-2.474 1.032-3.714 1.239-11.865.825-23.737.619-35.608-.413-.988 0-1.977-.207-2.719-.826-5.439-4.128-9.146-9.081-10.134-15.273-.743-4.953 2.964-7.017 8.403-5.366 4.204 1.032 6.181 3.715 9.152 6.811Z" fill="#083B39"/><path opacity=".4" d="M1058.02 485.65c2.95-3.068 5.16-6.339 8.11-9.202 1.73-1.84 3.45-3.477 5.66-4.908 4.43-2.658 6.89-2.249 7.87 2.25 1.23 5.93-1.23 11.246-5.65 15.949-.99 1.023-2.22 1.227-3.69 1.227-11.81.818-23.61.613-35.42-.204-1.72-.205-2.7-.818-3.94-1.841-4.67-3.68-7.37-8.383-9.1-13.495-.73-2.25.25-3.886 1.73-5.317 1.72-1.636 4.18-1.227 6.64-.613 3.94.818 5.9 3.68 9.1 7.156.24-3.681.49-6.338 1.23-8.793.98-3.066 1.96-6.747 6.39-6.747 4.18 0 5.66 3.681 6.64 6.543 2.22 5.521 3.69 11.656 4.43 17.995Z" fill="#083C39"/><path opacity=".4" d="M803.031 431.734c.484-3.078.729-5.95 1.459-8.617.729-2.873 1.704-6.36 5.843-6.565 3.654 0 5.12 3.077 6.333 5.744 2.68 6.155 4.146 12.515 5.12 19.286 1.705-.616 1.95-1.846 2.68-2.872 2.918-4.309 5.843-8.412 10.472-11.695 4.384-3.283 7.309-2.462 8.038 2.462.975 5.54-1.22 10.669-5.113 15.183-.975 1.025-2.196 1.23-3.655 1.23-11.447 1.436-22.9 1.026-34.347.821-1.221 0-2.189 0-3.164-.821-5.604-4.103-9.749-8.822-10.479-15.387-.484-4.514 2.68-6.361 7.8-4.924 2.434.615 4.138 1.846 5.597 3.282 1.221 1.026 1.466 2.462 3.416 2.873Z" fill="#1C6001"/><path opacity=".4" d="M567.428 443.982c.495-2.9.991-4.972 1.239-7.043.495-2.486 1.486-4.765 3.22-6.836 2.229-2.279 4.21-2.279 6.936-.207 1.733 1.45 2.476 3.314 3.467 5.179 2.477 6.007 3.468 12.222 4.211 18.644 1.734-.414 2.229-1.864 2.972-2.693 3.221-4.143 6.441-8.286 11.147-11.394 4.211-2.693 6.936-2.072 7.926 2.279 1.487 6.215-1.486 11.601-6.192 16.366-.743.829-1.982.829-3.221 1.036-11.641 1.035-23.283.414-34.925-.207-1.239 0-2.477-.208-3.22-.829-5.697-4.351-9.908-9.53-10.404-16.159-.247-4.35 2.477-5.8 7.432-4.972 4.458.829 6.687 3.729 9.412 6.836ZM249.067 421.39c.123-1.763.246-3.111.617-4.356.246-.829.616-1.555 1.11-2.281 1.233-1.659 2.466-1.659 3.946-.311.74.726 1.109 1.555 1.48 2.385 1.11 3.007 1.849 6.118 1.973 9.23 1.11.207 1.11-.622 1.357-1.037 1.602-2.178 3.329-4.356 5.795-5.911 2.22-1.452 3.577-1.141 3.947 1.244.493 2.904-.74 5.497-2.836 7.882-.494.622-1.357.622-2.097.725-5.796.415-11.592.312-17.389-.207-.739-.104-1.233-.311-1.849-.726-2.343-1.866-3.946-4.148-4.687-6.741-.37-1.141-.37-2.385.864-3.215 1.356-.933 2.836-.311 4.193.208 1.479.622 2.096 1.763 3.576 3.111Z" fill="#083B39"/><path opacity=".4" d="M514.563 502.947c-.487-2.689-.731-5.171-1.217-7.446-1.217-4.55-4.137-8.274-6.814-7.653-3.894.827-5.354 3.93-6.327 7.033-2.19 5.998-3.164 12.203-4.137 18.822-2.92-3.517-5.354-6.619-7.787-9.515-1.947-2.275-4.137-4.343-7.057-5.791-3.164-1.862-4.381-1.241-6.327 1.654-2.434 3.93.973 14.066 5.596 17.789.974.827 2.19.827 3.164.827 11.68 1.034 23.362.621 34.799-.207.973 0 1.947-.207 2.677-.827 5.354-4.551 9.733-9.515 9.977-16.134.243-4.343-2.677-5.998-7.544-4.757-2.676.414-3.893 1.241-9.003 6.205ZM129.833 578.649c1.484-1.563 2.598-3.223 4.082-4.68.866-.939 1.732-1.766 2.845-2.497 2.226-1.457 3.587-1.041 3.958 1.35.495 2.914-.742 5.512-2.845 7.903-.619.624-1.361.624-2.103.731-5.813.416-11.627.31-17.44-.208-.742-.107-1.237-.315-1.855-.731-2.35-1.868-3.958-4.157-4.7-6.756-.248-1.147-.248-2.39.989-3.223 1.237-.832 2.598-.315 3.958.208 1.484.518 2.226 1.766 3.711 3.325 0-2.076.247-3.432.742-4.889.495-1.451 1.113-3.223 3.092-3.223s2.722 1.665 3.216 3.122c1.237 3.122 1.979 6.238 2.35 9.568Z" fill="#21B6A0"/><path opacity=".4" d="M53.925 514.597c.247-3.509.494-6.192 1.236-8.669.495-1.651 1.236-3.096 2.225-4.541 2.473-3.508 5.193-3.508 8.408-.619 1.484 1.445 1.978 3.096 2.72 4.954 2.225 5.985 3.461 11.97 3.956 18.782 2.226-1.239 2.72-2.89 3.71-4.129 3.213-3.921 6.18-7.636 10.631-10.526 4.204-2.683 6.43-2.063 7.419 2.065 1.483 6.191-1.237 11.557-5.688 16.511-.989 1.032-2.472 1.032-3.709 1.238-11.868.826-23.737.62-35.606-.412-.99 0-1.978-.207-2.72-.826-5.44-4.128-9.15-9.081-10.138-15.273-.742-4.954 2.967-7.017 8.407-5.366 4.203 1.032 6.181 3.715 9.149 6.811Z" fill="#083B39"/><path opacity=".4" d="M339.761 485.65c2.951-3.068 5.165-6.34 8.116-9.202 1.722-1.841 3.443-3.477 5.656-4.908 4.427-2.658 6.887-2.249 7.871 2.249 1.229 5.93-1.23 11.247-5.657 15.95-.983 1.023-2.214 1.227-3.689 1.227-11.805.818-23.61.613-35.415-.204-1.722-.205-2.706-.818-3.936-1.841-4.672-3.68-7.378-8.383-9.099-13.495-.738-2.25.245-3.886 1.721-5.317 1.722-1.636 4.182-1.227 6.641-.614 3.935.818 5.902 3.681 9.1 7.157.245-3.681.491-6.339 1.229-8.793.984-3.067 1.967-6.747 6.394-6.747 4.181 0 5.657 3.68 6.641 6.543 2.213 5.521 3.689 11.655 4.427 17.995Z" fill="#083C39"/><path opacity=".4" d="M84.77 431.734c.487-3.078.73-5.95 1.46-8.618.732-2.872 1.706-6.36 5.847-6.564 3.654 0 5.115 3.077 6.333 5.744 2.679 6.155 4.141 12.515 5.115 19.286 1.706-.616 1.949-1.846 2.68-2.872 2.923-4.309 5.846-8.413 10.475-11.695 4.384-3.283 7.307-2.462 8.038 2.462.974 5.539-1.218 10.669-5.116 15.182-.974 1.026-2.192 1.231-3.653 1.231-11.449 1.436-22.898 1.026-34.347.821-1.217 0-2.192 0-3.166-.821-5.603-4.103-9.744-8.822-10.475-15.387-.487-4.514 2.68-6.361 7.795-4.924 2.436.615 4.141 1.846 5.603 3.282 1.218 1.026 1.462 2.462 3.41 2.873Z" fill="#1C6001"/><path opacity=".4" d="M707.349 392.74c-1.061.507-2.122.405-3.316.405.929-.708 2.122-.607 3.316-.405Z" fill="#B7D8B4"/></g></g><defs><linearGradient id="b" x1="1024.01" y1="362.809" x2="204.988" y2="-198.077" gradientUnits="userSpaceOnUse"><stop stop-color="#66BA70"/><stop offset=".404" stop-color="#6AA84F"/><stop offset=".55" stop-color="#6AA84F"/><stop offset="1" stop-color="#74A133"/></linearGradient><linearGradient id="c" x1="-8.29" y1="589.5" x2="1.308" y2="-2.516" gradientUnits="userSpaceOnUse"><stop stop-color="#013F4A" stop-opacity="0"/><stop offset="1" stop-color="#0B3C45" stop-opacity=".699"/></linearGradient><clipPath id="a"><path fill="#fff" d="M0 0h1024v576H0z"/></clipPath></defs></svg>